<svg width="1224" height="826" viewBox="0 0 1224 826" fill="none" xmlns="http://www.w3.org/2000/svg">
<rect width="1224" height="826" fill="#E5E5E5"/>
<rect width="1224" height="826" fill="#FAEEEE"/>
<path d="M264.703 179.677L551.527 372.097L314.751 522.226L264.703 179.677Z" fill="#3394F7"/>
<rect width="51.1427" height="130.894" transform="matrix(0.821707 -0.56991 0.56569 0.824618 401.149 444.864)" fill="#3394F7"/>
<g filter="url(#filter0_di)">
<path d="M387.835 311.476H436.438V392.687C436.438 405.636 433.48 415.158 427.562 421.251C421.058 427.814 410.452 431.095 395.745 431.095H387.835V311.476ZM320.071 390.05H373.245V431.095H367.532C350.716 431.095 338.616 428.4 331.233 423.009C323.792 417.677 320.071 408.8 320.071 396.378V390.05Z" fill="#063092"/>
<path d="M387.835 311.476V310.476H386.835V311.476H387.835ZM436.439 311.476H437.439V310.476H436.439V311.476ZM427.562 421.251L428.272 421.955L428.279 421.948L427.562 421.251ZM387.835 431.095H386.835V432.095H387.835V431.095ZM320.071 390.05V389.05H319.071V390.05H320.071ZM373.245 390.05H374.245V389.05H373.245V390.05ZM373.245 431.095V432.095H374.245V431.095H373.245ZM331.233 423.009L331.823 422.202L331.816 422.196L331.233 423.009ZM387.835 312.476H436.439V310.476H387.835V312.476ZM435.439 311.476V392.687H437.439V311.476H435.439ZM435.439 392.687C435.439 405.509 432.505 414.725 426.844 420.555L428.279 421.948C434.454 415.59 437.439 405.763 437.439 392.687H435.439ZM426.851 420.547C420.621 426.834 410.338 430.095 395.745 430.095V432.095C410.566 432.095 421.495 428.793 428.272 421.955L426.851 420.547ZM395.745 430.095H387.835V432.095H395.745V430.095ZM388.835 431.095V311.476H386.835V431.095H388.835ZM320.071 391.05H373.245V389.05H320.071V391.05ZM372.245 390.05V431.095H374.245V390.05H372.245ZM373.245 430.095H367.532V432.095H373.245V430.095ZM367.532 430.095C350.773 430.095 338.942 427.4 331.823 422.202L330.644 423.817C338.29 429.4 350.658 432.095 367.532 432.095V430.095ZM331.816 422.196C324.724 417.115 321.071 408.603 321.071 396.378H319.071C319.071 408.998 322.86 418.24 330.651 423.822L331.816 422.196ZM321.071 396.378V390.05H319.071V396.378H321.071Z" fill="#E5E5E5"/>
<path d="M450.757 381.294C450.679 380.982 450.614 380.643 450.562 380.279L450.405 379.185C450.301 378.404 450.249 377.492 450.249 376.451C450.249 375.383 450.484 374.159 450.952 372.779C451.447 371.398 452.241 370.201 453.335 369.185C455.679 366.997 459.299 365.904 464.195 365.904L493.218 391.411C493.478 392.349 493.609 393.599 493.609 395.161C493.609 396.698 493.348 398.169 492.827 399.576C492.307 400.956 491.473 402.154 490.327 403.169C487.879 405.409 484.312 406.529 479.624 406.529L451.03 381.294H450.757ZM493.882 366.294C494.663 367.492 495.054 369.133 495.054 371.216C495.054 375.07 493.609 377.948 490.718 379.849L475.054 366.294H493.882ZM449.624 406.138C448.843 404.94 448.452 403.3 448.452 401.216C448.452 397.388 449.885 394.523 452.749 392.622L468.452 406.138H449.624ZM526.148 406.138C513.257 406.138 506.812 400.253 506.812 388.482V366.529L523.335 355.708H529.195V406.138H526.148ZM534.859 366.294H553.57V379.38H534.859V366.294ZM534.898 389.458H556.577V392.896C556.577 397.323 555.223 400.591 552.515 402.701C549.572 404.992 544.82 406.138 538.257 406.138H534.898V389.458ZM594.78 366.294H616.499V406.138H594.78V366.294ZM566.734 366.294H588.335V406.138H584.82C575.236 406.138 569.52 402.883 567.671 396.372C567.046 394.263 566.734 391.828 566.734 389.068V366.294ZM655.601 346.333H676.421V406.138H655.601V346.333ZM626.655 386.685C626.655 383.82 627.033 381.164 627.788 378.716C628.544 376.242 629.715 374.081 631.304 372.232C634.741 368.273 639.663 366.294 646.07 366.294H649.077V406.138H647.046C640.484 406.138 635.405 404.341 631.812 400.747C628.374 397.31 626.655 392.622 626.655 386.685ZM698.726 355.591C690.106 355.591 685.796 352.896 685.796 347.505C685.796 344.745 686.825 342.766 688.882 341.568C690.939 340.344 694.077 339.732 698.296 339.732C702.515 339.732 705.627 340.344 707.632 341.568C709.637 342.766 710.64 344.758 710.64 347.544C710.64 350.305 709.702 352.336 707.827 353.638C705.978 354.94 702.945 355.591 698.726 355.591ZM687.984 366.333H708.999V406.138H687.984V366.333ZM748.062 366.294H751.07C757.476 366.294 762.398 368.273 765.835 372.232C768.934 375.826 770.484 380.591 770.484 386.529C770.484 392.57 768.765 397.31 765.327 400.747C761.734 404.341 756.655 406.138 750.093 406.138H748.062V366.294ZM719.312 386.685C719.312 383.82 719.689 381.164 720.445 378.716C721.2 376.242 722.372 374.081 723.96 372.232C727.398 368.273 732.32 366.294 738.726 366.294H741.734V406.138H739.702C733.14 406.138 728.062 404.341 724.468 400.747C721.03 397.31 719.312 392.622 719.312 386.685ZM783.804 381.294C783.726 380.982 783.661 380.643 783.609 380.279L783.452 379.185C783.348 378.404 783.296 377.492 783.296 376.451C783.296 375.383 783.53 374.159 783.999 372.779C784.494 371.398 785.288 370.201 786.382 369.185C788.726 366.997 792.346 365.904 797.241 365.904L826.265 391.411C826.525 392.349 826.655 393.599 826.655 395.161C826.655 396.698 826.395 398.169 825.874 399.576C825.353 400.956 824.52 402.154 823.374 403.169C820.926 405.409 817.359 406.529 812.671 406.529L784.077 381.294H783.804ZM826.929 366.294C827.71 367.492 828.101 369.133 828.101 371.216C828.101 375.07 826.655 377.948 823.765 379.849L808.101 366.294H826.929ZM782.671 406.138C781.89 404.94 781.499 403.3 781.499 401.216C781.499 397.388 782.932 394.523 785.796 392.622L801.499 406.138H782.671Z" fill="#063092"/>
<path d="M450.757 381.294L449.787 381.537L449.976 382.294H450.757V381.294ZM450.562 380.279L449.572 380.42L450.562 380.279ZM450.405 379.185L449.414 379.317L449.416 379.326L450.405 379.185ZM450.952 372.779L450.011 372.441L450.008 372.449L450.005 372.457L450.952 372.779ZM453.335 369.185L454.016 369.918L454.017 369.916L453.335 369.185ZM464.195 365.904L464.855 365.153L464.572 364.904H464.195V365.904ZM493.218 391.411L494.182 391.144L494.102 390.857L493.878 390.66L493.218 391.411ZM492.827 399.576L493.763 399.929L493.765 399.923L492.827 399.576ZM490.327 403.169L489.664 402.421L489.658 402.426L489.652 402.432L490.327 403.169ZM479.624 406.529L478.963 407.278L479.246 407.529H479.624V406.529ZM451.03 381.294L451.692 380.545L451.409 380.294H451.03V381.294ZM493.882 366.294L494.72 365.748L494.424 365.294H493.882V366.294ZM490.718 379.849L490.064 380.605L490.636 381.1L491.267 380.685L490.718 379.849ZM475.054 366.294V365.294H472.37L474.4 367.05L475.054 366.294ZM449.624 406.138L448.787 406.684L449.083 407.138H449.624V406.138ZM452.749 392.622L453.402 391.865L452.827 391.37L452.196 391.789L452.749 392.622ZM468.452 406.138V407.138H471.147L469.105 405.38L468.452 406.138ZM451.727 381.052C451.658 380.777 451.6 380.473 451.552 380.137L449.572 380.42C449.628 380.814 449.699 381.187 449.787 381.537L451.727 381.052ZM451.552 380.137L451.395 379.044L449.416 379.326L449.572 380.42L451.552 380.137ZM451.397 379.053C451.3 378.327 451.249 377.461 451.249 376.451H449.249C449.249 377.523 449.303 378.481 449.414 379.317L451.397 379.053ZM451.249 376.451C451.249 375.524 451.454 374.412 451.899 373.1L450.005 372.457C449.513 373.906 449.249 375.242 449.249 376.451H451.249ZM451.894 373.116C452.333 371.889 453.037 370.826 454.016 369.918L452.655 368.452C451.446 369.575 450.561 370.907 450.011 372.441L451.894 373.116ZM454.017 369.916C456.099 367.973 459.422 366.904 464.195 366.904V364.904C459.175 364.904 455.259 366.022 452.653 368.454L454.017 369.916ZM463.534 366.655L492.558 392.163L493.878 390.66L464.855 365.153L463.534 366.655ZM492.254 391.679C492.481 392.493 492.609 393.642 492.609 395.161H494.609C494.609 393.556 494.476 392.205 494.182 391.144L492.254 391.679ZM492.609 395.161C492.609 396.582 492.368 397.936 491.89 399.228L493.765 399.923C494.328 398.403 494.609 396.814 494.609 395.161H492.609ZM491.892 399.223C491.43 400.445 490.693 401.509 489.664 402.421L490.991 403.918C492.253 402.799 493.183 401.467 493.763 399.929L491.892 399.223ZM489.652 402.432C487.453 404.444 484.165 405.529 479.624 405.529V407.529C484.459 407.529 488.306 406.374 491.002 403.907L489.652 402.432ZM480.286 405.779L451.692 380.545L450.369 382.044L478.963 407.278L480.286 405.779ZM451.03 380.294H450.757V382.294H451.03V380.294ZM493.044 366.841C493.682 367.818 494.054 369.243 494.054 371.216H496.054C496.054 369.023 495.645 367.167 494.72 365.748L493.044 366.841ZM494.054 371.216C494.054 374.779 492.742 377.321 490.169 379.013L491.267 380.685C494.475 378.575 496.054 375.362 496.054 371.216H494.054ZM491.372 379.093L475.708 365.538L474.4 367.05L490.064 380.605L491.372 379.093ZM475.054 367.294H493.882V365.294H475.054V367.294ZM450.462 405.592C449.825 404.615 449.452 403.189 449.452 401.216H447.452C447.452 403.41 447.861 405.266 448.787 406.684L450.462 405.592ZM449.452 401.216C449.452 397.678 450.752 395.148 453.302 393.456L452.196 391.789C449.017 393.899 447.452 397.098 447.452 401.216H449.452ZM452.097 393.38L467.8 406.896L469.105 405.38L453.402 391.865L452.097 393.38ZM468.452 405.138H449.624V407.138H468.452V405.138ZM506.812 366.529L506.264 365.692L505.812 365.988V366.529H506.812ZM523.335 355.708V354.708H523.037L522.787 354.872L523.335 355.708ZM529.195 355.708H530.195V354.708H529.195V355.708ZM529.195 406.138V407.138H530.195V406.138H529.195ZM534.859 366.294V365.294H533.859V366.294H534.859ZM553.57 366.294H554.57V365.294H553.57V366.294ZM553.57 379.38V380.38H554.57V379.38H553.57ZM534.859 379.38H533.859V380.38H534.859V379.38ZM534.898 389.458V388.458H533.898V389.458H534.898ZM556.577 389.458H557.577V388.458H556.577V389.458ZM552.515 402.701L553.129 403.49L553.129 403.49L552.515 402.701ZM534.898 406.138H533.898V407.138H534.898V406.138ZM526.148 405.138C519.835 405.138 515.287 403.695 512.32 400.986C509.37 398.292 507.812 394.189 507.812 388.482H505.812C505.812 394.546 507.476 399.271 510.971 402.462C514.449 405.638 519.57 407.138 526.148 407.138V405.138ZM507.812 388.482V366.529H505.812V388.482H507.812ZM507.36 367.365L523.883 356.545L522.787 354.872L506.264 365.692L507.36 367.365ZM523.335 356.708H529.195V354.708H523.335V356.708ZM528.195 355.708V406.138H530.195V355.708H528.195ZM529.195 405.138H526.148V407.138H529.195V405.138ZM534.859 367.294H553.57V365.294H534.859V367.294ZM552.57 366.294V379.38H554.57V366.294H552.57ZM553.57 378.38H534.859V380.38H553.57V378.38ZM535.859 379.38V366.294H533.859V379.38H535.859ZM534.898 390.458H556.577V388.458H534.898V390.458ZM555.577 389.458V392.896H557.577V389.458H555.577ZM555.577 392.896C555.577 397.112 554.298 400.044 551.9 401.912L553.129 403.49C556.149 401.138 557.577 397.534 557.577 392.896H555.577ZM551.9 401.912C549.224 403.996 544.748 405.138 538.257 405.138V407.138C544.891 407.138 549.921 405.988 553.129 403.49L551.9 401.912ZM538.257 405.138H534.898V407.138H538.257V405.138ZM535.898 406.138V389.458H533.898V406.138H535.898ZM594.78 366.294V365.294H593.78V366.294H594.78ZM616.499 366.294H617.499V365.294H616.499V366.294ZM616.499 406.138V407.138H617.499V406.138H616.499ZM594.78 406.138H593.78V407.138H594.78V406.138ZM566.734 366.294V365.294H565.734V366.294H566.734ZM588.335 366.294H589.335V365.294H588.335V366.294ZM588.335 406.138V407.138H589.335V406.138H588.335ZM567.671 396.372L568.633 396.099L568.63 396.088L567.671 396.372ZM594.78 367.294H616.499V365.294H594.78V367.294ZM615.499 366.294V406.138H617.499V366.294H615.499ZM616.499 405.138H594.78V407.138H616.499V405.138ZM595.78 406.138V366.294H593.78V406.138H595.78ZM566.734 367.294H588.335V365.294H566.734V367.294ZM587.335 366.294V406.138H589.335V366.294H587.335ZM588.335 405.138H584.82V407.138H588.335V405.138ZM584.82 405.138C580.127 405.138 576.494 404.339 573.84 402.828C571.217 401.334 569.488 399.11 568.633 396.099L566.709 396.646C567.703 400.145 569.757 402.804 572.85 404.566C575.912 406.31 579.928 407.138 584.82 407.138V405.138ZM568.63 396.088C568.038 394.091 567.734 391.755 567.734 389.068H565.734C565.734 391.901 566.054 394.435 566.712 396.657L568.63 396.088ZM567.734 389.068V366.294H565.734V389.068H567.734ZM655.601 346.333V345.333H654.601V346.333H655.601ZM676.421 346.333H677.421V345.333H676.421V346.333ZM676.421 406.138V407.138H677.421V406.138H676.421ZM655.601 406.138H654.601V407.138H655.601V406.138ZM627.788 378.716L628.744 379.011L628.745 379.008L627.788 378.716ZM631.304 372.232L630.549 371.576L630.545 371.58L631.304 372.232ZM649.077 366.294H650.077V365.294H649.077V366.294ZM649.077 406.138V407.138H650.077V406.138H649.077ZM655.601 347.333H676.421V345.333H655.601V347.333ZM675.421 346.333V406.138H677.421V346.333H675.421ZM676.421 405.138H655.601V407.138H676.421V405.138ZM656.601 406.138V346.333H654.601V406.138H656.601ZM627.655 386.685C627.655 383.909 628.021 381.353 628.744 379.011L626.833 378.421C626.045 380.975 625.655 383.732 625.655 386.685H627.655ZM628.745 379.008C629.462 376.658 630.569 374.621 632.062 372.883L630.545 371.58C628.861 373.54 627.625 375.826 626.832 378.424L628.745 379.008ZM632.059 372.887C635.265 369.196 639.883 367.294 646.07 367.294V365.294C639.444 365.294 634.218 367.351 630.549 371.576L632.059 372.887ZM646.07 367.294H649.077V365.294H646.07V367.294ZM648.077 366.294V406.138H650.077V366.294H648.077ZM649.077 405.138H647.046V407.138H649.077V405.138ZM647.046 405.138C640.668 405.138 635.875 403.396 632.519 400.04L631.105 401.455C634.936 405.286 640.299 407.138 647.046 407.138V405.138ZM632.519 400.04C629.309 396.83 627.655 392.42 627.655 386.685H625.655C625.655 392.825 627.44 397.79 631.105 401.455L632.519 400.04ZM688.882 341.568L689.385 342.432L689.393 342.427L688.882 341.568ZM707.632 341.568L707.111 342.421L707.119 342.426L707.632 341.568ZM707.827 353.638L707.257 352.817L707.252 352.82L707.827 353.638ZM687.984 366.333V365.333H686.984V366.333H687.984ZM708.999 366.333H709.999V365.333H708.999V366.333ZM708.999 406.138V407.138H709.999V406.138H708.999ZM687.984 406.138H686.984V407.138H687.984V406.138ZM698.726 354.591C694.488 354.591 691.479 353.923 689.559 352.722C687.717 351.57 686.796 349.881 686.796 347.505H684.796C684.796 350.52 686.03 352.874 688.498 354.418C690.888 355.912 694.344 356.591 698.726 356.591V354.591ZM686.796 347.505C686.796 345.033 687.69 343.419 689.385 342.432L688.379 340.704C685.96 342.112 684.796 344.457 684.796 347.505H686.796ZM689.393 342.427C691.218 341.341 694.138 340.732 698.296 340.732V338.732C694.016 338.732 690.66 339.346 688.371 340.708L689.393 342.427ZM698.296 340.732C702.457 340.732 705.344 341.342 707.111 342.421L708.153 340.714C705.91 339.345 702.573 338.732 698.296 338.732V340.732ZM707.119 342.426C708.76 343.406 709.64 345.03 709.64 347.544H711.64C711.64 344.486 710.515 342.125 708.145 340.709L707.119 342.426ZM709.64 347.544C709.64 350.055 708.805 351.742 707.257 352.817L708.398 354.459C710.6 352.93 711.64 350.554 711.64 347.544H709.64ZM707.252 352.82C705.664 353.939 702.892 354.591 698.726 354.591V356.591C702.997 356.591 706.293 355.942 708.403 354.456L707.252 352.82ZM687.984 367.333H708.999V365.333H687.984V367.333ZM707.999 366.333V406.138H709.999V366.333H707.999ZM708.999 405.138H687.984V407.138H708.999V405.138ZM688.984 406.138V366.333H686.984V406.138H688.984ZM748.062 366.294V365.294H747.062V366.294H748.062ZM765.835 372.232L766.592 371.579L766.59 371.576L765.835 372.232ZM748.062 406.138H747.062V407.138H748.062V406.138ZM720.445 378.716L721.4 379.011L721.401 379.008L720.445 378.716ZM723.96 372.232L723.205 371.576L723.202 371.58L723.96 372.232ZM741.734 366.294H742.734V365.294H741.734V366.294ZM741.734 406.138V407.138H742.734V406.138H741.734ZM748.062 367.294H751.07V365.294H748.062V367.294ZM751.07 367.294C757.256 367.294 761.874 369.196 765.08 372.887L766.59 371.576C762.921 367.351 757.695 365.294 751.07 365.294V367.294ZM765.078 372.885C767.984 376.255 769.484 380.769 769.484 386.529H771.484C771.484 380.414 769.884 375.396 766.592 371.579L765.078 372.885ZM769.484 386.529C769.484 392.373 767.827 396.834 764.62 400.04L766.034 401.455C769.703 397.786 771.484 392.767 771.484 386.529H769.484ZM764.62 400.04C761.264 403.396 756.471 405.138 750.093 405.138V407.138C756.84 407.138 762.203 405.286 766.034 401.455L764.62 400.04ZM750.093 405.138H748.062V407.138H750.093V405.138ZM749.062 406.138V366.294H747.062V406.138H749.062ZM720.312 386.685C720.312 383.909 720.678 381.353 721.4 379.011L719.489 378.421C718.701 380.975 718.312 383.732 718.312 386.685H720.312ZM721.401 379.008C722.118 376.658 723.226 374.621 724.719 372.883L723.202 371.58C721.518 373.54 720.281 375.826 719.488 378.424L721.401 379.008ZM724.715 372.887C727.921 369.196 732.539 367.294 738.726 367.294V365.294C732.1 365.294 726.874 367.351 723.205 371.576L724.715 372.887ZM738.726 367.294H741.734V365.294H738.726V367.294ZM740.734 366.294V406.138H742.734V366.294H740.734ZM741.734 405.138H739.702V407.138H741.734V405.138ZM739.702 405.138C733.324 405.138 728.531 403.396 725.175 400.04L723.761 401.455C727.592 405.286 732.955 407.138 739.702 407.138V405.138ZM725.175 400.04C721.965 396.83 720.312 392.42 720.312 386.685H718.312C718.312 392.825 720.096 397.79 723.761 401.455L725.175 400.04ZM783.804 381.294L782.834 381.537L783.023 382.294H783.804V381.294ZM783.609 380.279L782.619 380.42L783.609 380.279ZM783.452 379.185L782.461 379.317L782.462 379.326L783.452 379.185ZM783.999 372.779L783.058 372.441L783.055 372.449L783.052 372.457L783.999 372.779ZM786.382 369.185L787.062 369.918L787.064 369.916L786.382 369.185ZM797.241 365.904L797.902 365.153L797.618 364.904H797.241V365.904ZM826.265 391.411L827.228 391.144L827.149 390.857L826.925 390.66L826.265 391.411ZM825.874 399.576L826.81 399.929L826.812 399.923L825.874 399.576ZM823.374 403.169L822.711 402.421L822.705 402.426L822.699 402.432L823.374 403.169ZM812.671 406.529L812.009 407.278L812.293 407.529H812.671V406.529ZM784.077 381.294L784.739 380.545L784.456 380.294H784.077V381.294ZM826.929 366.294L827.767 365.748L827.471 365.294H826.929V366.294ZM823.765 379.849L823.111 380.605L823.682 381.1L824.314 380.685L823.765 379.849ZM808.101 366.294V365.294H805.417L807.446 367.05L808.101 366.294ZM782.671 406.138L781.833 406.684L782.129 407.138H782.671V406.138ZM785.796 392.622L786.448 391.865L785.874 391.37L785.243 391.789L785.796 392.622ZM801.499 406.138V407.138H804.194L802.152 405.38L801.499 406.138ZM784.774 381.052C784.705 380.777 784.646 380.473 784.599 380.137L782.619 380.42C782.675 380.814 782.746 381.187 782.834 381.537L784.774 381.052ZM784.599 380.137L784.442 379.044L782.462 379.326L782.619 380.42L784.599 380.137ZM784.444 379.053C784.347 378.327 784.296 377.461 784.296 376.451H782.296C782.296 377.523 782.35 378.481 782.461 379.317L784.444 379.053ZM784.296 376.451C784.296 375.524 784.501 374.412 784.946 373.1L783.052 372.457C782.56 373.906 782.296 375.242 782.296 376.451H784.296ZM784.941 373.116C785.38 371.889 786.084 370.826 787.062 369.918L785.702 368.452C784.493 369.575 783.608 370.907 783.058 372.441L784.941 373.116ZM787.064 369.916C789.146 367.973 792.469 366.904 797.241 366.904V364.904C792.222 364.904 788.306 366.022 785.7 368.454L787.064 369.916ZM796.581 366.655L825.605 392.163L826.925 390.66L797.902 365.153L796.581 366.655ZM825.301 391.679C825.527 392.493 825.655 393.642 825.655 395.161H827.655C827.655 393.556 827.523 392.205 827.228 391.144L825.301 391.679ZM825.655 395.161C825.655 396.582 825.415 397.936 824.936 399.228L826.812 399.923C827.375 398.403 827.655 396.814 827.655 395.161H825.655ZM824.939 399.223C824.477 400.445 823.74 401.509 822.711 402.421L824.038 403.918C825.3 402.799 826.229 401.467 826.81 399.929L824.939 399.223ZM822.699 402.432C820.5 404.444 817.212 405.529 812.671 405.529V407.529C817.506 407.529 821.353 406.374 824.049 403.907L822.699 402.432ZM813.333 405.779L784.739 380.545L783.416 382.044L812.009 407.278L813.333 405.779ZM784.077 380.294H783.804V382.294H784.077V380.294ZM826.091 366.841C826.729 367.818 827.101 369.243 827.101 371.216H829.101C829.101 369.023 828.692 367.167 827.767 365.748L826.091 366.841ZM827.101 371.216C827.101 374.779 825.789 377.321 823.215 379.013L824.314 380.685C827.522 378.575 829.101 375.362 829.101 371.216H827.101ZM824.419 379.093L808.755 365.538L807.446 367.05L823.111 380.605L824.419 379.093ZM808.101 367.294H826.929V365.294H808.101V367.294ZM783.509 405.592C782.871 404.615 782.499 403.189 782.499 401.216H780.499C780.499 403.41 780.908 405.266 781.833 406.684L783.509 405.592ZM782.499 401.216C782.499 397.678 783.799 395.148 786.349 393.456L785.243 391.789C782.064 393.899 780.499 397.098 780.499 401.216H782.499ZM785.144 393.38L800.847 406.896L802.152 405.38L786.448 391.865L785.144 393.38ZM801.499 405.138H782.671V407.138H801.499V405.138Z" fill="#E5E5E5"/>
</g>
<rect x="406.641" y="255.095" width="52.7179" height="47.0276" fill="#31C2F1"/>
<rect x="658.065" y="263.1" width="40.5523" height="38.0223" fill="#33C7F8"/>
<rect x="550.602" y="298.12" width="64.8836" height="56.0329" fill="#3395F8"/>
<rect x="517.146" y="263.1" width="67.925" height="65.0382" fill="#33C7F8"/>
<g filter="url(#filter1_d)">
<path d="M563.47 414.277H558.9V410.146H563.47V414.277ZM563.47 437.181H558.9V418.179H563.47V437.181ZM588.923 437.181H584.353V426.634C584.353 426.036 584.247 425.503 584.036 425.034C583.837 424.554 583.562 424.144 583.21 423.804C582.859 423.464 582.443 423.206 581.962 423.031C581.493 422.843 580.984 422.749 580.433 422.749H572.435V437.181H567.864V420.447C567.864 420.13 567.923 419.837 568.04 419.568C568.157 419.286 568.321 419.046 568.532 418.847C568.743 418.636 568.989 418.472 569.271 418.355C569.552 418.238 569.851 418.179 570.167 418.179H580.468C581.042 418.179 581.646 418.243 582.278 418.372C582.923 418.501 583.556 418.712 584.177 419.005C584.81 419.286 585.407 419.65 585.97 420.095C586.544 420.529 587.048 421.062 587.482 421.695C587.927 422.316 588.278 423.036 588.536 423.857C588.794 424.677 588.923 425.603 588.923 426.634V437.181ZM613.989 437.181H609.419V426.634C609.419 426.036 609.314 425.503 609.103 425.034C608.903 424.554 608.628 424.144 608.277 423.804C607.925 423.464 607.509 423.206 607.028 423.031C606.56 422.843 606.05 422.749 605.499 422.749H597.501V437.181H592.931V420.447C592.931 420.13 592.989 419.837 593.107 419.568C593.224 419.286 593.388 419.046 593.599 418.847C593.81 418.636 594.056 418.472 594.337 418.355C594.618 418.238 594.917 418.179 595.234 418.179H605.534C606.109 418.179 606.712 418.243 607.345 418.372C607.989 418.501 608.622 418.712 609.243 419.005C609.876 419.286 610.474 419.65 611.036 420.095C611.611 420.529 612.114 421.062 612.548 421.695C612.993 422.316 613.345 423.036 613.603 423.857C613.861 424.677 613.989 425.603 613.989 426.634V437.181ZM638.669 430.765C638.669 431.55 638.569 432.259 638.37 432.892C638.171 433.513 637.907 434.064 637.579 434.544C637.251 435.013 636.87 435.417 636.437 435.757C636.003 436.085 635.546 436.355 635.066 436.566C634.597 436.777 634.116 436.935 633.624 437.04C633.144 437.134 632.687 437.181 632.253 437.181H624.009C623.376 437.181 622.685 437.07 621.935 436.847C621.185 436.624 620.487 436.261 619.843 435.757C619.21 435.242 618.677 434.579 618.243 433.771C617.821 432.951 617.611 431.949 617.611 430.765V424.577C617.611 423.406 617.821 422.415 618.243 421.607C618.677 420.786 619.21 420.124 619.843 419.62C620.487 419.105 621.185 418.736 621.935 418.513C622.685 418.29 623.376 418.179 624.009 418.179H632.253C633.425 418.179 634.421 418.39 635.241 418.812C636.062 419.234 636.724 419.767 637.228 420.411C637.732 421.044 638.095 421.736 638.318 422.486C638.552 423.236 638.669 423.933 638.669 424.577V430.765ZM634.099 424.613C634.099 423.98 633.941 423.511 633.624 423.206C633.308 422.902 632.851 422.749 632.253 422.749H624.044C623.435 422.749 622.972 422.908 622.655 423.224C622.339 423.529 622.181 423.98 622.181 424.577V430.765C622.181 431.363 622.339 431.82 622.655 432.136C622.972 432.452 623.435 432.611 624.044 432.611H632.253C632.874 432.611 633.337 432.452 633.642 432.136C633.946 431.82 634.099 431.363 634.099 430.765V424.613ZM665.247 418.179C664.732 419.784 664.128 421.367 663.437 422.925C662.745 424.484 661.948 425.972 661.046 427.39C660.155 428.796 659.153 430.103 658.04 431.31C656.939 432.505 655.714 433.542 654.366 434.421C653.03 435.288 651.571 435.974 649.989 436.478C648.419 436.97 646.714 437.216 644.874 437.216C644.558 437.216 644.259 437.158 643.978 437.04C643.696 436.923 643.45 436.765 643.239 436.566C643.028 436.355 642.864 436.115 642.747 435.845C642.63 435.564 642.571 435.265 642.571 434.949V418.179H647.142V432.47C648.255 432.47 649.321 432.23 650.341 431.749C651.372 431.269 652.345 430.636 653.259 429.851C654.173 429.054 655.017 428.152 655.79 427.144C656.575 426.136 657.273 425.105 657.882 424.05C658.491 422.984 659.007 421.941 659.429 420.921C659.862 419.902 660.185 418.988 660.396 418.179H665.247ZM685.919 430.888C685.919 431.521 685.808 432.206 685.585 432.945C685.362 433.671 684.999 434.351 684.495 434.984C684.003 435.605 683.353 436.126 682.544 436.548C681.747 436.97 680.775 437.181 679.626 437.181H671.382C670.749 437.181 670.064 437.07 669.325 436.847C668.599 436.624 667.919 436.267 667.286 435.775C666.665 435.271 666.144 434.62 665.722 433.824C665.3 433.015 665.089 432.036 665.089 430.888C665.089 430.255 665.2 429.57 665.423 428.831C665.646 428.093 666.003 427.413 666.495 426.792C666.999 426.159 667.65 425.632 668.446 425.21C669.255 424.788 670.234 424.577 671.382 424.577H679.626V428.937H671.382C670.761 428.937 670.28 429.13 669.941 429.517C669.601 429.892 669.431 430.361 669.431 430.923C669.431 431.521 669.624 431.99 670.011 432.329C670.409 432.658 670.878 432.822 671.417 432.822H679.626C680.247 432.822 680.728 432.634 681.068 432.259C681.407 431.884 681.577 431.415 681.577 430.853V424.472C681.577 423.874 681.39 423.4 681.015 423.048C680.652 422.697 680.189 422.521 679.626 422.521H669.589V418.179H679.626C680.259 418.179 680.939 418.29 681.665 418.513C682.403 418.736 683.083 419.099 683.704 419.603C684.337 420.095 684.864 420.745 685.286 421.554C685.708 422.351 685.919 423.324 685.919 424.472V430.888ZM707.03 422.749H699.05V437.181H694.427V422.749H688.486V418.179H694.427V411.974H699.05V418.179H707.03V422.749ZM730.409 424.472C730.409 425.105 730.298 425.79 730.075 426.529C729.853 427.255 729.489 427.935 728.986 428.568C728.493 429.189 727.843 429.71 727.034 430.132C726.237 430.554 725.265 430.765 724.116 430.765H715.872V426.423H724.116C724.737 426.423 725.218 426.236 725.558 425.861C725.898 425.474 726.068 424.999 726.068 424.437C726.068 423.839 725.874 423.37 725.487 423.031C725.112 422.691 724.655 422.521 724.116 422.521H715.872C715.251 422.521 714.771 422.714 714.431 423.101C714.091 423.476 713.921 423.945 713.921 424.507V430.888C713.921 431.497 714.109 431.972 714.484 432.312C714.87 432.652 715.345 432.822 715.907 432.822H724.116V437.181H715.872C715.239 437.181 714.554 437.07 713.816 436.847C713.089 436.624 712.409 436.267 711.777 435.775C711.155 435.271 710.634 434.62 710.212 433.824C709.79 433.015 709.579 432.036 709.579 430.888V424.472C709.579 423.839 709.691 423.159 709.913 422.433C710.136 421.695 710.493 421.015 710.986 420.394C711.489 419.761 712.14 419.234 712.937 418.812C713.745 418.39 714.724 418.179 715.872 418.179H724.116C724.749 418.179 725.429 418.29 726.155 418.513C726.894 418.736 727.573 419.099 728.194 419.603C728.827 420.095 729.355 420.745 729.777 421.554C730.198 422.351 730.409 423.324 730.409 424.472ZM766.04 430.765C766.04 431.55 765.941 432.259 765.741 432.892C765.542 433.513 765.278 434.064 764.95 434.544C764.622 435.013 764.241 435.417 763.808 435.757C763.374 436.085 762.917 436.355 762.437 436.566C761.968 436.777 761.487 436.935 760.995 437.04C760.515 437.134 760.058 437.181 759.624 437.181H751.38C750.595 437.181 749.892 437.081 749.271 436.882C748.65 436.683 748.099 436.419 747.618 436.091C747.15 435.751 746.745 435.365 746.405 434.931C746.077 434.497 745.808 434.046 745.597 433.577C745.386 433.097 745.228 432.617 745.122 432.136C745.028 431.644 744.982 431.187 744.982 430.765V424.577C744.982 423.406 745.193 422.415 745.614 421.607C746.048 420.786 746.581 420.124 747.214 419.62C747.859 419.105 748.556 418.736 749.306 418.513C750.056 418.29 750.747 418.179 751.38 418.179H759.624V422.749H751.415C750.806 422.749 750.343 422.908 750.027 423.224C749.71 423.529 749.552 423.98 749.552 424.577V430.73C749.552 431.351 749.704 431.82 750.009 432.136C750.325 432.452 750.782 432.611 751.38 432.611H759.624C760.245 432.611 760.708 432.452 761.013 432.136C761.318 431.82 761.47 431.363 761.47 430.765V410.146H766.04V430.765ZM775.04 414.277H770.47V410.146H775.04V414.277ZM775.04 437.181H770.47V418.179H775.04V437.181ZM800.107 439.009C800.107 439.794 800.007 440.497 799.808 441.118C799.609 441.751 799.345 442.302 799.017 442.771C798.689 443.251 798.308 443.656 797.874 443.984C797.441 444.324 796.984 444.599 796.503 444.81C796.034 445.021 795.554 445.173 795.062 445.267C794.581 445.372 794.124 445.425 793.691 445.425H785.446V440.855H793.691C794.312 440.855 794.775 440.697 795.079 440.38C795.384 440.064 795.536 439.607 795.536 439.009V424.577C795.536 423.98 795.384 423.529 795.079 423.224C794.775 422.908 794.312 422.749 793.691 422.749H785.446C784.884 422.749 784.439 422.925 784.111 423.277C783.782 423.617 783.618 424.05 783.618 424.577V430.765C783.618 431.363 783.777 431.82 784.093 432.136C784.409 432.452 784.872 432.611 785.482 432.611H793.691V437.181H785.446C785.013 437.181 784.556 437.134 784.075 437.04C783.595 436.935 783.114 436.777 782.634 436.566C782.165 436.355 781.714 436.085 781.28 435.757C780.847 435.417 780.466 435.013 780.138 434.544C779.81 434.064 779.546 433.513 779.347 432.892C779.148 432.259 779.048 431.55 779.048 430.765V424.577C779.048 424.144 779.095 423.687 779.189 423.206C779.294 422.726 779.452 422.251 779.663 421.783C779.874 421.302 780.144 420.845 780.472 420.411C780.812 419.978 781.216 419.597 781.685 419.269C782.165 418.941 782.716 418.677 783.337 418.478C783.958 418.279 784.661 418.179 785.446 418.179H793.691C794.124 418.179 794.581 418.232 795.062 418.337C795.554 418.431 796.034 418.583 796.503 418.794C796.984 419.005 797.441 419.281 797.874 419.62C798.308 419.949 798.689 420.353 799.017 420.833C799.345 421.302 799.609 421.847 799.808 422.468C800.007 423.089 800.107 423.792 800.107 424.577V439.009ZM808.931 414.277H804.361V410.146H808.931V414.277ZM808.931 437.181H804.361V418.179H808.931V437.181ZM830.605 422.749H822.624V437.181H818.001V422.749H812.06V418.179H818.001V411.974H822.624V418.179H830.605V422.749ZM852.138 430.888C852.138 431.521 852.027 432.206 851.804 432.945C851.581 433.671 851.218 434.351 850.714 434.984C850.222 435.605 849.571 436.126 848.763 436.548C847.966 436.97 846.993 437.181 845.845 437.181H837.601C836.968 437.181 836.282 437.07 835.544 436.847C834.818 436.624 834.138 436.267 833.505 435.775C832.884 435.271 832.362 434.62 831.941 433.824C831.519 433.015 831.308 432.036 831.308 430.888C831.308 430.255 831.419 429.57 831.642 428.831C831.864 428.093 832.222 427.413 832.714 426.792C833.218 426.159 833.868 425.632 834.665 425.21C835.474 424.788 836.452 424.577 837.601 424.577H845.845V428.937H837.601C836.98 428.937 836.499 429.13 836.159 429.517C835.819 429.892 835.65 430.361 835.65 430.923C835.65 431.521 835.843 431.99 836.23 432.329C836.628 432.658 837.097 432.822 837.636 432.822H845.845C846.466 432.822 846.946 432.634 847.286 432.259C847.626 431.884 847.796 431.415 847.796 430.853V424.472C847.796 423.874 847.609 423.4 847.234 423.048C846.87 422.697 846.407 422.521 845.845 422.521H835.808V418.179H845.845C846.478 418.179 847.157 418.29 847.884 418.513C848.622 418.736 849.302 419.099 849.923 419.603C850.556 420.095 851.083 420.745 851.505 421.554C851.927 422.351 852.138 423.324 852.138 424.472V430.888ZM864.39 437.181H862.351C861.694 437.181 860.991 437.07 860.241 436.847C859.503 436.624 858.812 436.261 858.167 435.757C857.523 435.242 856.989 434.579 856.568 433.771C856.146 432.951 855.935 431.949 855.935 430.765V410.146H860.505V430.765C860.505 431.327 860.681 431.779 861.032 432.118C861.384 432.447 861.823 432.611 862.351 432.611H864.39V437.181ZM875.675 437.181H873.636C872.98 437.181 872.277 437.07 871.527 436.847C870.788 436.624 870.097 436.261 869.452 435.757C868.808 435.242 868.275 434.579 867.853 433.771C867.431 432.951 867.22 431.949 867.22 430.765V410.146H871.79V430.765C871.79 431.327 871.966 431.779 872.318 432.118C872.669 432.447 873.109 432.611 873.636 432.611H875.675V437.181ZM899.564 439.009C899.564 439.794 899.464 440.497 899.265 441.118C899.066 441.751 898.802 442.302 898.474 442.771C898.146 443.251 897.765 443.656 897.331 443.984C896.898 444.324 896.441 444.599 895.96 444.81C895.491 445.021 895.017 445.173 894.536 445.267C894.056 445.372 893.599 445.425 893.165 445.425H884.921V440.855H893.165C893.775 440.855 894.232 440.697 894.536 440.38C894.841 440.064 894.993 439.607 894.993 439.009V418.179H899.564V439.009ZM893.165 437.181H884.921C884.265 437.181 883.562 437.07 882.812 436.847C882.073 436.624 881.382 436.261 880.737 435.757C880.093 435.242 879.56 434.579 879.138 433.771C878.716 432.951 878.505 431.949 878.505 430.765V418.179H883.075V430.765C883.075 431.363 883.234 431.82 883.55 432.136C883.866 432.452 884.335 432.611 884.956 432.611H893.165V437.181ZM907.737 434.878C907.737 435.195 907.673 435.493 907.544 435.775C907.427 436.044 907.263 436.284 907.052 436.495C906.853 436.695 906.612 436.853 906.331 436.97C906.062 437.087 905.775 437.146 905.47 437.146C905.153 437.146 904.855 437.087 904.573 436.97C904.304 436.853 904.064 436.695 903.853 436.495C903.653 436.284 903.495 436.044 903.378 435.775C903.261 435.493 903.202 435.195 903.202 434.878C903.202 434.574 903.261 434.286 903.378 434.017C903.495 433.736 903.653 433.495 903.853 433.296C904.064 433.085 904.304 432.921 904.573 432.804C904.855 432.675 905.153 432.611 905.47 432.611C905.775 432.611 906.062 432.675 906.331 432.804C906.612 432.921 906.853 433.085 907.052 433.296C907.263 433.495 907.427 433.736 907.544 434.017C907.673 434.286 907.737 434.574 907.737 434.878ZM915.12 434.878C915.12 435.195 915.056 435.493 914.927 435.775C914.81 436.044 914.646 436.284 914.435 436.495C914.236 436.695 913.995 436.853 913.714 436.97C913.444 437.087 913.157 437.146 912.853 437.146C912.536 437.146 912.237 437.087 911.956 436.97C911.687 436.853 911.446 436.695 911.236 436.495C911.036 436.284 910.878 436.044 910.761 435.775C910.644 435.493 910.585 435.195 910.585 434.878C910.585 434.574 910.644 434.286 910.761 434.017C910.878 433.736 911.036 433.495 911.236 433.296C911.446 433.085 911.687 432.921 911.956 432.804C912.237 432.675 912.536 432.611 912.853 432.611C913.157 432.611 913.444 432.675 913.714 432.804C913.995 432.921 914.236 433.085 914.435 433.296C914.646 433.495 914.81 433.736 914.927 434.017C915.056 434.286 915.12 434.574 915.12 434.878ZM922.503 434.878C922.503 435.195 922.439 435.493 922.31 435.775C922.193 436.044 922.028 436.284 921.818 436.495C921.618 436.695 921.378 436.853 921.097 436.97C920.827 437.087 920.54 437.146 920.236 437.146C919.919 437.146 919.62 437.087 919.339 436.97C919.069 436.853 918.829 436.695 918.618 436.495C918.419 436.284 918.261 436.044 918.144 435.775C918.027 435.493 917.968 435.195 917.968 434.878C917.968 434.574 918.027 434.286 918.144 434.017C918.261 433.736 918.419 433.495 918.618 433.296C918.829 433.085 919.069 432.921 919.339 432.804C919.62 432.675 919.919 432.611 920.236 432.611C920.54 432.611 920.827 432.675 921.097 432.804C921.378 432.921 921.618 433.085 921.818 433.296C922.028 433.495 922.193 433.736 922.31 434.017C922.439 434.286 922.503 434.574 922.503 434.878Z" fill="#100A25"/>
</g>
<defs>
<filter id="filter0_di" x="319.071" y="296.476" width="529.03" height="139.619" filterUnits="userSpaceOnUse" color-interpolation-filters="sRGB">
<feFlood flood-opacity="0" result="BackgroundImageFix"/>
<feColorMatrix in="SourceAlpha" type="matrix" values="0 0 0 0 0 0 0 0 0 0 0 0 0 0 0 0 0 0 127 0"/>
<feOffset dx="10" dy="-5"/>
<feGaussianBlur stdDeviation="4.5"/>
<feColorMatrix type="matrix" values="0 0 0 0 0 0 0 0 0 0 0 0 0 0 0 0 0 0 0.25 0"/>
<feBlend mode="normal" in2="BackgroundImageFix" result="effect1_dropShadow"/>
<feBlend mode="normal" in="SourceGraphic" in2="effect1_dropShadow" result="shape"/>
<feColorMatrix in="SourceAlpha" type="matrix" values="0 0 0 0 0 0 0 0 0 0 0 0 0 0 0 0 0 0 127 0" result="hardAlpha"/>
<feOffset dy="4"/>
<feGaussianBlur stdDeviation="2"/>
<feComposite in2="hardAlpha" operator="arithmetic" k2="-1" k3="1"/>
<feColorMatrix type="matrix" values="0 0 0 0 0.137255 0 0 0 0 0.403922 0 0 0 0 0.666667 0 0 0 1 0"/>
<feBlend mode="normal" in2="shape" result="effect2_innerShadow"/>
</filter>
<filter id="filter1_d" x="554.9" y="410.146" width="371.604" height="43.2793" filterUnits="userSpaceOnUse" color-interpolation-filters="sRGB">
<feFlood flood-opacity="0" result="BackgroundImageFix"/>
<feColorMatrix in="SourceAlpha" type="matrix" values="0 0 0 0 0 0 0 0 0 0 0 0 0 0 0 0 0 0 127 0"/>
<feOffset dy="4"/>
<feGaussianBlur stdDeviation="2"/>
<feColorMatrix type="matrix" values="0 0 0 0 0 0 0 0 0 0 0 0 0 0 0 0 0 0 0.25 0"/>
<feBlend mode="normal" in2="BackgroundImageFix" result="effect1_dropShadow"/>
<feBlend mode="normal" in="SourceGraphic" in2="effect1_dropShadow" result="shape"/>
</filter>
</defs>
</svg>
